#Comment line ignore any data following # character 
#Hierarchical Translation and Rotation (.htr) file 
[Header]	
#Header keywords are followed by a single value 
FileType HTR		#Single word string
DataType HTRS		#Translation followed by rotation and scale data
FileVersion 1		#integer
NumSegments 25		#integer
NumFrames 4		#integer
DataFrameRate 30		#integer, data frame rate in this file
EulerRotationOrder ZYX
CalibrationUnits mm
RotationUnits Degrees
GlobalAxisofGravity Y
BoneLengthAxis Y
ScaleFactor 1.00
[SegmentNames&Hierarchy]
#CHILD	PARENT
BN_Tick_Root GLOBAL
BN_Torso BN_Tick_Root
BN_L_Leg_Front01 BN_Torso
BN_L_Leg_Rear01 BN_Torso
BN_MetalTop BN_Torso
BN_Neck BN_Torso
BN_R_Leg_Front01 BN_Torso
BN_R_Leg_Rear01 BN_Torso
BN_Sack BN_Torso
BN_L_Leg_Front02 BN_L_Leg_Front01
BN_L_Leg_Front03 BN_L_Leg_Front02
BN_L_Leg_Rear02 BN_L_Leg_Rear01
BN_L_Leg_Rear03 BN_L_Leg_Rear02
BN_Head BN_Neck
BN_Needle BN_Head
BN_R_Leg_Front02 BN_R_Leg_Front01
BN_R_Leg_Front03 BN_R_Leg_Front02
BN_R_Leg_Rear02 BN_R_Leg_Rear01
BN_R_Leg_Rear03 BN_R_Leg_Rear02
BN_SackDef01 BN_Sack
BN_SackDef02 BN_Sack
BN_SackDef03 BN_Sack
BN_SackDef04 BN_Sack
BN_SackDef05 BN_Sack
BN_SackDef06 BN_Sack
[BasePosition]
#SegmentName Tx, Ty, Tz, Rx, Ry, Rz, BoneLength
BN_Tick_Root 0.000000 0.000000 0.000000 -90.000000 0.000000 0.000000 10.000000 
BN_Torso 0.000000 0.000000 0.000000 0.000000 0.000000 0.000000 10.000000 
BN_L_Leg_Front01 0.000000 0.000000 0.000000 0.000000 0.000000 0.000000 10.000000 
BN_L_Leg_Rear01 0.000000 0.000000 0.000000 0.000000 0.000000 0.000000 10.000000 
BN_MetalTop 0.000000 0.000000 0.000000 0.000000 0.000000 0.000000 10.000000 
BN_Neck 0.000000 0.000000 0.000000 0.000000 0.000000 0.000000 10.000000 
BN_R_Leg_Front01 0.000000 0.000000 0.000000 0.000000 0.000000 0.000000 10.000000 
BN_R_Leg_Rear01 0.000000 0.000000 0.000000 0.000000 0.000000 0.000000 10.000000 
BN_Sack 0.000000 0.000000 0.000000 0.000000 0.000000 0.000000 10.000000 
BN_L_Leg_Front02 0.000000 0.000000 0.000000 0.000000 0.000000 0.000000 10.000000 
BN_L_Leg_Front03 0.000000 0.000000 0.000000 0.000000 0.000000 0.000000 10.000000 
BN_L_Leg_Rear02 0.000000 0.000000 0.000000 0.000000 0.000000 0.000000 10.000000 
BN_L_Leg_Rear03 0.000000 0.000000 0.000000 0.000000 0.000000 0.000000 10.000000 
BN_Head 0.000000 0.000000 0.000000 0.000000 0.000000 0.000000 10.000000 
BN_Needle 0.000000 0.000000 0.000000 0.000000 0.000000 0.000000 10.000000 
BN_R_Leg_Front02 0.000000 0.000000 0.000000 0.000000 0.000000 0.000000 10.000000 
BN_R_Leg_Front03 0.000000 0.000000 0.000000 0.000000 0.000000 0.000000 10.000000 
BN_R_Leg_Rear02 0.000000 0.000000 0.000000 0.000000 0.000000 0.000000 10.000000 
BN_R_Leg_Rear03 0.000000 0.000000 0.000000 0.000000 0.000000 0.000000 10.000000 
BN_SackDef01 0.000000 0.000000 0.000000 0.000000 0.000000 0.000000 10.000000 
BN_SackDef02 0.000000 0.000000 0.000000 0.000000 0.000000 0.000000 10.000000 
BN_SackDef03 0.000000 0.000000 0.000000 0.000000 0.000000 0.000000 10.000000 
BN_SackDef04 0.000000 0.000000 0.000000 0.000000 0.000000 0.000000 10.000000 
BN_SackDef05 0.000000 0.000000 0.000000 0.000000 0.000000 0.000000 10.000000 
BN_SackDef06 0.000000 0.000000 0.000000 0.000000 0.000000 0.000000 10.000000 
#Beginning of Data. Separated by tabs
#Fr	Tx	Ty	Tz	Rx	Ry	Rz	SF
[BN_Tick_Root]
142 -2271.881592 910.853088 -0.000399 0.000000 0.000000 -12.052612 2447.672363
143 -2217.036621 910.501770 -0.000458 0.000000 0.000000 -15.178344 2396.719727
144 -2164.749268 910.059875 -0.000515 0.000000 0.000000 -18.306402 2348.265137
145 -2116.297852 909.571228 -0.000567 0.000000 0.000000 -21.432110 2303.483643
[BN_Torso]
142 -83.218857 -8.049993 174.712311 -109.008179 -5.344975 65.630280 193.686798
143 -73.843750 -7.793346 181.227097 -90.836334 -4.457964 56.105686 195.849167
144 -62.371151 -5.666387 187.741913 -72.671402 -3.559629 46.584538 197.912338
145 -47.829971 -0.881384 194.256592 -54.504799 -2.671946 37.062496 200.060257
[BN_L_Leg_Front01]
142 -68.477791 10.734189 -26.804373 124.671059 13.689726 33.828197 74.316254
143 -68.477791 10.734189 -26.804373 48.099380 -31.392437 47.231468 74.316254
144 -68.477791 10.734189 -26.804373 -19.038822 -23.462189 68.715874 74.316254
145 -68.477791 10.734189 -26.804373 -43.388523 -9.023289 86.250336 74.316254
[BN_L_Leg_Rear01]
142 -72.133743 -73.994843 -18.268616 -162.416336 21.630260 176.755508 104.939293
143 -72.133743 -73.994843 -18.268616 -118.319016 33.338821 162.274261 104.939293
144 -72.133743 -73.994843 -18.268616 -87.963577 44.823521 154.828308 104.939293
145 -72.133743 -73.994843 -18.268616 -61.455750 55.106380 154.811951 104.939293
[BN_MetalTop]
142 0.000008 13.737477 26.403606 90.003738 -42.105724 -90.001175 29.763546
143 0.000008 13.737477 26.403606 90.001625 -40.632046 -89.999039 29.763546
144 0.000008 13.737477 26.403606 90.001694 -38.746574 -90.004303 29.763546
145 0.000008 13.737477 26.403606 89.999283 -36.552658 -90.000572 29.763546
[BN_Neck]
142 0.000014 95.233284 10.002091 -86.179764 -31.005484 87.665222 95.757088
143 0.000014 95.233284 10.002091 -84.299065 -38.462528 86.538719 95.757088
144 0.000014 95.233284 10.002091 -81.844154 -46.285152 84.985962 95.757088
145 0.000014 95.233284 10.002091 -78.620331 -54.155888 82.780830 95.757088
[BN_R_Leg_Front01]
142 68.477768 10.734107 -26.804314 161.700027 18.315237 -98.912018 74.316193
143 68.477768 10.734107 -26.804314 169.840012 49.507221 -97.080177 74.316193
144 68.477768 10.734107 -26.804314 -149.080688 20.203192 32.359589 74.316193
145 68.477768 10.734107 -26.804314 138.466095 12.849431 44.557228 74.316193
[BN_R_Leg_Rear01]
142 72.133751 -73.994873 -18.268644 113.502441 33.990780 132.280487 104.939331
143 72.133751 -73.994873 -18.268644 117.399368 56.247105 92.556229 104.939331
144 72.133751 -73.994873 -18.268644 69.160355 60.523712 51.281548 104.939331
145 72.133751 -73.994873 -18.268644 17.771297 54.497967 24.967411 104.939331
[BN_Sack]
142 -0.000000 -78.024918 33.657791 89.996071 7.588296 -90.000809 84.974907
143 -0.000000 -78.024918 33.657791 90.000938 7.127085 -90.000587 84.974907
144 -0.000000 -78.024918 33.657791 89.997795 4.943988 -90.000610 84.974907
145 -0.000000 -78.024918 33.657791 89.997513 1.302677 -90.000893 84.974907
[BN_L_Leg_Front02]
142 142.805023 -0.000015 -0.000104 136.634995 1.243407 41.198093 142.805023
143 142.805023 -0.000015 -0.000104 21.531010 -24.826260 -179.431442 142.805023
144 142.805023 -0.000015 -0.000104 0.189687 0.247391 -88.004204 142.805023
145 142.805023 -0.000015 -0.000104 0.167433 0.349933 -98.308937 142.805023
[BN_L_Leg_Front03]
142 124.143021 -0.000045 0.000007 0.352812 0.002251 -179.672852 124.143021
143 124.143021 -0.000045 0.000007 0.352562 -0.158170 159.163223 124.143021
144 124.143021 -0.000045 0.000007 0.355127 -0.448441 94.656776 124.143021
145 124.143021 -0.000045 0.000007 0.352622 -0.430139 106.750565 124.143021
[BN_L_Leg_Rear02]
142 139.939041 0.000075 -0.000022 17.291847 -44.917366 91.565193 139.939041
143 139.939041 0.000075 -0.000022 30.110994 -45.013187 74.338654 139.939041
144 139.939041 0.000075 -0.000022 25.330179 -40.398624 77.537170 139.939041
145 139.939041 0.000075 -0.000022 12.143126 -25.305408 87.359222 139.939041
[BN_L_Leg_Rear03]
142 142.839615 0.000179 -0.000060 0.000568 -0.002295 -117.810722 142.839615
143 142.839615 0.000179 -0.000060 0.000289 -0.002329 -104.164406 142.839615
144 142.839615 0.000179 -0.000060 0.000288 -0.002330 -104.083382 142.839615
145 142.839615 0.000179 -0.000060 0.000365 -0.002319 -107.910042 142.839615
[BN_Head]
142 57.062447 -0.000030 0.000000 1.899701 1.319518 33.981956 57.062447
143 57.062447 -0.000030 0.000000 2.576056 1.790915 26.395737 57.062447
144 57.062447 -0.000030 0.000000 3.288179 2.280985 18.405069 57.062447
145 57.062447 -0.000030 0.000000 4.003735 2.780891 10.313733 57.062447
[BN_Needle]
142 33.915195 69.677528 -0.000016 0.000003 0.000030 87.896805 77.493217
143 33.915195 69.677528 -0.000015 0.000003 0.000030 87.896805 77.493217
144 33.915195 69.677528 -0.000015 0.000003 0.000030 87.896805 77.493217
145 33.915195 69.677528 -0.000014 0.000003 0.000030 87.896805 77.493217
[BN_R_Leg_Front02]
142 142.804947 -0.000060 0.000060 -93.483635 1.829907 -72.560303 142.804947
143 142.804947 -0.000060 0.000060 -136.277344 -35.982258 17.765905 142.804947
144 142.804947 -0.000060 0.000060 -125.040016 1.247384 -31.491657 142.804947
145 142.804947 -0.000060 0.000060 -4.696542 -26.828037 136.978302 142.804947
[BN_R_Leg_Front03]
142 124.143005 -0.000060 -0.000156 -0.354438 0.002253 179.674164 124.143005
143 124.143005 -0.000060 -0.000156 -0.351362 -0.140897 -161.861099 124.143005
144 124.143005 -0.000060 -0.000156 -0.354428 0.002237 179.676804 124.143005
145 124.143005 -0.000060 -0.000156 -0.354000 -0.292923 -139.503754 124.143005
[BN_R_Leg_Rear02]
142 139.939011 -0.000149 0.000015 -42.267670 -33.561150 -52.983925 139.939011
143 139.939011 -0.000149 0.000015 -41.834126 -21.106829 -42.710861 139.939011
144 139.939011 -0.000149 0.000015 -27.281645 0.002225 -20.019821 139.939011
145 139.939011 -0.000149 0.000015 -0.244186 0.000611 -19.153156 139.939011
[BN_R_Leg_Rear03]
142 142.839417 0.000075 0.000119 0.002328 0.000296 75.492470 142.839417
143 142.839417 0.000075 0.000119 0.002216 0.000773 51.539158 142.839417
144 142.839417 0.000075 0.000119 0.001660 0.001660 -0.008230 142.839417
145 142.839417 0.000075 0.000119 0.001660 0.001660 -0.008230 142.839417
[BN_SackDef01]
142 249.782272 -3.760844 42.949425 -128.408218 -44.374973 -11.740845 253.475800
143 249.782272 -3.760844 42.949425 -128.408218 -44.374973 -11.740845 253.475800
144 249.782272 -3.760844 42.949425 -128.408218 -44.374973 -11.740845 253.475800
145 249.782272 -3.760844 42.949425 -128.408218 -44.374973 -11.740845 253.475800
[BN_SackDef02]
142 138.789795 -62.131748 45.674385 32.077126 -27.375721 -88.781525 158.773758
143 138.789795 -62.131748 45.674385 32.077126 -27.375721 -88.781525 158.773758
144 138.789795 -62.131748 45.674385 32.077126 -27.375721 -88.781525 158.773758
145 138.789795 -62.131748 45.674385 32.077126 -27.375721 -88.781525 158.773758
[BN_SackDef03]
142 249.782272 -3.760785 -42.949661 18.144459 44.375008 -11.740894 253.475845
143 249.782272 -3.760785 -42.949661 18.144459 44.375008 -11.740894 253.475845
144 249.782272 -3.760785 -42.949661 18.144459 44.375008 -11.740894 253.475845
145 249.782272 -3.760785 -42.949661 18.144459 44.375008 -11.740894 253.475845
[BN_SackDef04]
142 138.789780 -62.131645 -45.674473 146.059982 27.375723 -88.781555 158.773743
143 138.789780 -62.131645 -45.674473 146.059982 27.375723 -88.781555 158.773743
144 138.789780 -62.131645 -45.674473 146.059982 27.375723 -88.781555 158.773743
145 138.789780 -62.131645 -45.674473 146.059982 27.375723 -88.781555 158.773743
[BN_SackDef05]
142 118.790161 46.167137 -63.831196 0.155741 51.314110 90.605110 142.537460
143 118.790161 46.167137 -63.831196 0.155741 51.314110 90.605110 142.537460
144 118.790161 46.167137 -63.831196 0.155741 51.314110 90.605110 142.537460
145 118.790161 46.167137 -63.831196 0.155741 51.314110 90.605110 142.537460
[BN_SackDef06]
142 118.790207 46.167194 63.831219 152.058487 -51.314072 90.605019 142.537537
143 118.790207 46.167194 63.831219 152.058487 -51.314072 90.605019 142.537537
144 118.790207 46.167194 63.831219 152.058487 -51.314072 90.605019 142.537537
145 118.790207 46.167194 63.831219 152.058487 -51.314072 90.605019 142.537537
